<svg width="74" height="27" viewBox="0 0 74 27" fill="none" xmlns="http://www.w3.org/2000/svg">
<path d="M10.5722 26.36C8.5322 26.36 6.6482 26.108 4.9202 25.604C3.2162 25.076 1.7522 24.356 0.528203 23.444L1.9682 19.808C2.7842 20.384 3.6362 20.876 4.5242 21.284C5.4122 21.668 6.3602 21.968 7.3682 22.184C8.3762 22.376 9.4442 22.472 10.5722 22.472C12.4682 22.472 13.8362 22.16 14.6762 21.536C15.5162 20.912 15.9362 20.096 15.9362 19.088C15.9362 18.2 15.6482 17.528 15.0722 17.072C14.4962 16.592 13.4642 16.196 11.9762 15.884L7.9082 15.056C5.5802 14.576 3.8402 13.772 2.6882 12.644C1.5362 11.516 0.960203 10.004 0.960203 8.108C0.960203 6.524 1.3802 5.144 2.2202 3.968C3.0602 2.792 4.2362 1.88 5.7482 1.232C7.2602 0.583999 9.0242 0.259999 11.0402 0.259999C12.8402 0.259999 14.5082 0.523999 16.0442 1.052C17.5802 1.556 18.8642 2.288 19.8962 3.248L18.4562 6.704C17.4242 5.84 16.2962 5.204 15.0722 4.796C13.8482 4.364 12.4802 4.148 10.9682 4.148C9.2642 4.148 7.9322 4.484 6.9722 5.156C6.0362 5.804 5.5682 6.704 5.5682 7.856C5.5682 8.744 5.8562 9.452 6.4322 9.98C7.0322 10.508 8.0402 10.916 9.4562 11.204L13.4882 11.996C15.8882 12.476 17.6642 13.268 18.8162 14.372C19.9682 15.452 20.5442 16.916 20.5442 18.764C20.5442 20.276 20.1362 21.608 19.3202 22.76C18.5042 23.888 17.3522 24.776 15.8642 25.424C14.3762 26.048 12.6122 26.36 10.5722 26.36ZM24.0913 13.292C24.0913 10.628 24.5713 8.324 25.5313 6.38C26.5153 4.436 27.9193 2.936 29.7433 1.88C31.5673 0.799999 33.7393 0.259999 36.2593 0.259999C38.7553 0.259999 40.9153 0.799999 42.7393 1.88C44.5633 2.936 45.9673 4.436 46.9513 6.38C47.9593 8.324 48.4633 10.616 48.4633 13.256C48.4633 15.92 47.9593 18.236 46.9513 20.204C45.9673 22.148 44.5633 23.66 42.7393 24.74C40.9153 25.82 38.7553 26.36 36.2593 26.36C33.7393 26.36 31.5673 25.82 29.7433 24.74C27.9433 23.66 26.5513 22.148 25.5673 20.204C24.5833 18.236 24.0913 15.932 24.0913 13.292ZM28.9513 13.292C28.9513 16.148 29.5633 18.38 30.7873 19.988C32.0113 21.596 33.8353 22.4 36.2593 22.4C38.6113 22.4 40.4233 21.596 41.6953 19.988C42.9673 18.38 43.6033 16.148 43.6033 13.292C43.6033 10.412 42.9673 8.18 41.6953 6.596C40.4473 5.012 38.6353 4.22 36.2593 4.22C33.8353 4.22 32.0113 5.012 30.7873 6.596C29.5633 8.18 28.9513 10.412 28.9513 13.292ZM65.0633 26.36C62.4233 26.36 60.1553 25.832 58.2593 24.776C56.3873 23.696 54.9473 22.184 53.9393 20.24C52.9313 18.272 52.4273 15.956 52.4273 13.292C52.4273 10.628 52.9313 8.324 53.9393 6.38C54.9473 4.436 56.3873 2.936 58.2593 1.88C60.1553 0.799999 62.4233 0.259999 65.0633 0.259999C66.8393 0.259999 68.4353 0.511999 69.8513 1.016C71.2913 1.52 72.5273 2.264 73.5593 3.248L72.0473 6.92C70.9193 6.008 69.8273 5.36 68.7713 4.976C67.7393 4.568 66.5513 4.364 65.2073 4.364C62.6393 4.364 60.6713 5.144 59.3033 6.704C57.9593 8.24 57.2873 10.436 57.2873 13.292C57.2873 16.148 57.9593 18.356 59.3033 19.916C60.6713 21.476 62.6393 22.256 65.2073 22.256C66.5513 22.256 67.7393 22.064 68.7713 21.68C69.8273 21.272 70.9193 20.6 72.0473 19.664L73.5593 23.336C72.5273 24.296 71.2913 25.04 69.8513 25.568C68.4353 26.096 66.8393 26.36 65.0633 26.36Z" fill="black"/>
</svg>
